<svg width="146" height="24" viewBox="0 0 146 24" fill="none" xmlns="http://www.w3.org/2000/svg">
<g clip-path="url(#clip0_251_502)">
<path d="M33.1744 12.3169L32.8797 12.1321C31.8879 11.139 30.5019 10.7085 28.6505 10.8161C27.11 10.9116 25.8886 11.5208 24.9537 12.0895C24.9537 12.0752 24.9537 12.061 24.9537 12.0488C24.9537 11.5655 25.0086 11.0416 25.0635 10.5359C25.1163 10.018 25.1732 9.49206 25.1732 8.99654C25.1732 8.50103 25.1163 8.00754 24.9415 7.59732C24.8968 7.49172 24.8013 7.42877 24.6753 7.42877C24.1774 7.43892 23.206 7.7801 22.9702 7.98724L22.8422 8.26546C22.834 8.81783 22.7121 10.3552 22.5902 10.544C22.5942 10.5379 22.5251 10.7288 22.5251 10.7288C22.3138 12.9261 22.3097 14.8574 22.5048 16.5166C22.5272 16.6831 22.8462 16.9309 23.0921 17.0223C23.3624 17.1197 24.2099 16.8943 24.6977 16.7116C24.6936 16.7116 24.8826 16.6811 24.8826 16.6811C25.0371 16.6628 25.1265 16.5328 25.1204 16.3582C25.1183 16.3541 25.1326 15.881 25.1326 15.881C25.4842 14.4492 26.9108 12.7434 28.5997 12.4855C29.5528 12.3331 30.3068 12.5789 30.9023 13.2267C30.9835 13.3445 31.1563 14.3761 30.5283 15.5581C30.0609 16.4354 29.124 17.1746 27.8924 17.6356C26.7279 18.0783 25.4435 18.257 23.8604 18.2022C23.7953 18.1615 22.3768 17.201 22.3768 17.201C21.1208 16.3196 19.56 15.2209 18.1455 14.6848C17.8976 14.5914 17.4505 14.2218 17.1822 14.0004L17.0379 13.8806C16.221 13.2267 14.6683 12.191 13.4225 11.3624C13.4225 11.3624 12.8595 10.9847 12.7498 10.9136C12.7498 10.8669 12.7518 10.7735 12.7518 10.7735C12.7884 10.7329 13.5709 10.2638 13.5709 10.2638C14.6683 9.62203 15.1743 9.30726 15.282 9.14479C15.2597 9.17322 15.4284 9.0595 15.4284 9.0595C15.4385 9.05341 18.1476 7.52218 18.1476 7.52218C20.7591 6.08641 23.7161 4.46177 25.2687 2.85337C25.2687 2.85134 25.3439 2.60765 25.3439 2.60765L25.3805 2.38832C25.4821 2.04511 25.4882 1.78111 25.4008 1.47649C25.3805 1.38917 25.2972 1.28763 25.1895 1.26935C23.9762 1.14953 22.4134 1.87453 20.9887 3.21079C20.6676 3.51135 20.3973 3.6596 20.1128 3.81191L19.8953 3.93376C18.3244 4.82731 14.7882 7.02058 12.9347 8.2025C13.0567 6.21435 13.4245 3.38341 13.8798 1.02362L13.829 0.743372C13.8249 0.733218 13.6379 0.385951 13.6379 0.385951L13.4936 0.132101L13.4509 0.119916C13.0831 -0.0669178 12.7803 0.00822182 12.5588 0.0630534L12.1889 0.201148L11.695 0.379858C11.5995 0.400166 11.5284 0.46109 11.4918 0.554507C10.6078 2.68888 9.87005 6.20216 9.69527 9.01279C7.92921 7.88976 6.29524 7.0815 5.49452 6.69159L5.47216 6.6794L5.37664 6.65909C5.08806 6.62051 4.73647 6.4093 4.39911 6.20622C4.36253 6.18389 3.72642 5.77163 3.72642 5.77163L2.70011 5.11568L2.42982 5.05273C1.98881 5.1299 1.14338 5.69852 0.891372 6.08641C0.858855 6.13718 0.844629 6.19404 0.844629 6.2509C0.844629 6.3301 0.871049 6.4154 0.891372 6.49257L0.936082 6.70377L0.984857 6.82968C1.4787 7.33332 2.7184 8.17204 3.93778 8.82799L5.35022 9.57532L7.51055 10.7552C7.51055 10.7654 7.8784 11.0477 7.8784 11.0477L8.13243 11.1939C8.13243 11.1939 8.16292 11.2101 8.17918 11.2243C7.60201 11.6102 4.24872 13.8481 4.24872 13.8481L2.18188 15.2149C1.98678 15.3489 1.1698 15.7144 0.990954 15.7855C0.541817 15.9683 0.204457 16.2485 0.0621962 16.5532L0.00732422 16.6709L0.0621962 16.7522L0.220715 16.87L0.432074 17.0081L0.661723 17.1665L0.877146 17.1989C1.24093 17.2132 1.77745 17.006 2.78344 16.5653C3.7061 16.1571 6.21801 14.6442 7.28903 13.9984L7.74833 13.7242C7.93733 13.7385 8.14463 13.5801 8.3316 13.4399C8.54702 13.2673 9.01445 12.981 9.29897 12.8551C9.30913 12.851 9.47172 12.7596 9.62414 12.6764C9.62414 12.7251 9.62414 12.7982 9.62414 12.7982C9.67088 16.08 9.85988 18.4621 10.2196 20.302L10.2237 20.3345L10.2602 20.4076C10.4371 20.6676 10.6383 21.4454 10.8171 22.1297L11.2256 23.4985C11.2357 23.5147 11.3394 23.6285 11.3394 23.6285C11.5731 23.7848 12.2864 24.059 12.76 24.0021L12.8799 23.9879L12.9551 23.8214C12.9957 23.6163 13.0079 23.4173 13.0079 23.1959C13.0079 22.9441 12.9896 22.6679 12.9673 22.3287L12.9347 21.8373C12.7844 19.5486 12.634 16.2404 12.634 14.0431V13.8684C13.0242 14.1142 14.7252 15.1844 14.7252 15.1844C17.6253 17.0629 22.0028 19.9019 24.6469 20.6533C24.785 20.696 24.9293 20.6635 25.031 20.566C25.035 20.562 25.4374 20.304 25.4374 20.304L25.5126 20.2736C25.665 20.2005 25.7666 19.9466 25.7849 19.6684C28.0164 19.5547 31.1258 18.6977 32.7882 16.606C33.4345 15.7936 33.7231 14.8026 33.7231 13.9537C33.7231 13.2572 33.53 12.656 33.1784 12.3271" fill="#FCAF17"/>
<path d="M41.4033 3.35889H44.0127V10.6657L52.7943 3.35889H56.4869L47.2075 10.7348L57.2572 19.6865H53.5665L44.0127 10.9378V19.6865H41.4033V3.35889Z" fill="#776C61"/>
<path d="M59.0734 3.36108H67.1051C70.9278 3.36108 72.9235 4.6283 72.9235 7.40035C72.9235 9.37225 71.5456 10.7309 69.7125 11.0964V11.1655C72.3423 11.4782 73.584 13.2003 73.584 15.1438C73.584 17.5828 71.7997 19.6887 67.3591 19.6887H59.0734V3.36108ZM61.6768 10.2374H66.975C68.9443 10.2374 70.3974 9.49004 70.3974 7.75168C70.3974 6.23264 69.68 5.21927 66.6742 5.21927H61.6748V10.2374H61.6768ZM61.6768 17.8346H66.8124C70.0031 17.8346 70.8465 16.5897 70.8465 15.0077C70.8465 13.1313 69.5479 12.0935 66.6742 12.0935H61.6748V17.8346H61.6768Z" fill="#776C61"/>
<path d="M86.4367 5.5441H85.2031C85.516 5.83654 85.768 6.14928 85.955 6.52498C86.1217 6.92099 86.205 7.35964 86.205 7.86125C86.205 8.4055 86.1013 8.88477 85.892 9.30311C85.6827 9.72146 85.39 10.0748 85.0344 10.3266C84.6584 10.6191 84.2398 10.8282 83.7601 10.9542C83.2582 11.1004 82.7562 11.1613 82.2136 11.1613C81.6709 11.1613 81.1466 11.0983 80.667 10.9542C80.165 10.8282 79.7484 10.6191 79.4131 10.3266C79.0371 10.0768 78.7648 9.72146 78.5575 9.30311C78.3481 8.88477 78.2425 8.4055 78.2425 7.86125C78.2425 7.35964 78.3258 6.92099 78.4945 6.52498C78.6611 6.14928 78.8908 5.83654 79.2261 5.5441H77.9925V3.8098H81.169V2.28467H83.2378V3.8098H86.4346V5.5441H86.4367ZM93.314 12.2478V16.7582H82.2156V17.8853H93.4806V19.6196H80.167V15.0259H91.2857V14.0024H80.167V12.2478H93.314ZM82.2156 9.48995C82.7176 9.48995 83.1362 9.34373 83.4898 9.05129C83.8252 8.77917 84.0121 8.32021 84.0121 7.69269C84.0121 7.06517 83.8231 6.62855 83.4898 6.33611C83.1362 6.06399 82.7176 5.91777 82.2156 5.91777C81.7136 5.91777 81.295 6.06399 80.9617 6.33611C80.606 6.62855 80.4394 7.08751 80.4394 7.69269C80.4394 8.29787 80.606 8.77917 80.9617 9.05129C81.297 9.34373 81.7136 9.48995 82.2156 9.48995ZM87.9629 3.09902H89.9688V11.2243H87.9629V8.52938H85.1218V6.79711H87.9629V3.09902ZM91.3711 3.09902H93.377V11.2243H91.3711V3.09902Z" fill="#776C61"/>
<path d="M95.8414 16.5489H112.394V18.3238H95.8414V16.5489ZM96.7194 12.6233V10.8261C96.7194 10.8261 96.8657 10.7855 97.1584 10.7002C97.451 10.6372 97.8067 10.5133 98.266 10.3245C98.7049 10.158 99.1866 9.90613 99.7292 9.59339C100.231 9.30095 100.733 8.90495 101.213 8.42365C101.674 7.96266 102.091 7.42043 102.426 6.7523C102.759 6.12478 102.948 5.37338 103.032 4.49608V3.28369H105.33V4.49608C105.393 5.37338 105.603 6.12478 105.956 6.7523C106.291 7.42043 106.688 7.96266 107.169 8.42365C107.629 8.90495 108.131 9.30095 108.675 9.59339C109.198 9.90613 109.679 10.158 110.139 10.3245C110.578 10.5113 110.954 10.6372 111.246 10.7002C111.539 10.7834 111.685 10.8261 111.685 10.8261V12.6233C111.08 12.5198 110.431 12.3512 109.763 12.1014C109.074 11.8719 108.405 11.5572 107.736 11.1835C107.047 10.8078 106.399 10.3692 105.792 9.8249C105.164 9.32329 104.641 8.71811 104.182 8.00733C103.723 8.71608 103.178 9.32329 102.593 9.8249C101.965 10.3692 101.339 10.8078 100.67 11.1835C100.002 11.5592 99.3126 11.8719 98.644 12.1014C97.955 12.3512 97.3067 12.5198 96.7214 12.6233" fill="#776C61"/>
<path d="M119.019 14.3983V9.65638H113.438V7.88146H119.019V5.24954H113.438V3.45431H121.108V7.62964H123.199V3.07861H125.205V19.1402H123.199V9.4269H121.108V14.3983H119.019ZM128.613 19.6824H126.608V3.07861H128.613V19.6824Z" fill="#776C61"/>
<path d="M143.931 3.07877H146V19.5993H143.931V9.57327H141.443C141.36 10.3876 141.151 11.0984 140.858 11.6833C140.543 12.2884 140.169 12.7901 139.708 13.1861C139.226 13.6044 138.684 13.8968 138.098 14.0837C137.47 14.2928 136.844 14.3964 136.176 14.3964C135.424 14.3964 134.733 14.2928 134.107 14.041C133.458 13.8115 132.894 13.4562 132.434 12.9749C131.953 12.5159 131.577 11.9107 131.304 11.1999C131.012 10.5115 130.886 9.69512 130.886 8.73455C130.886 7.77398 131.012 6.95963 131.304 6.24885C131.577 5.53807 131.953 4.9532 132.434 4.47393C132.916 3.99466 133.458 3.67989 134.107 3.4301C134.735 3.20062 135.424 3.07471 136.176 3.07471C136.844 3.07471 137.472 3.17828 138.078 3.36714C138.663 3.57631 139.206 3.86875 139.687 4.24445C140.147 4.66279 140.523 5.14206 140.838 5.72693C141.13 6.3118 141.34 7.00024 141.423 7.79429H143.931V3.07877ZM136.198 12.4144C136.617 12.4144 137.035 12.3514 137.411 12.1849C137.787 12.061 138.1 11.8295 138.393 11.5167C138.665 11.2243 138.895 10.8486 139.062 10.3673C139.228 9.90835 139.312 9.3641 139.312 8.71627C139.312 8.06845 139.228 7.54653 139.062 7.06726C138.895 6.6083 138.663 6.2326 138.393 5.91783C138.1 5.62539 137.787 5.39591 137.411 5.22939C137.035 5.10348 136.617 5.02021 136.198 5.02021C135.759 5.02021 135.363 5.10348 134.985 5.22939C134.609 5.39591 134.275 5.62539 134.003 5.91783C133.711 6.2326 133.481 6.6083 133.335 7.06726C133.168 7.54856 133.083 8.09078 133.083 8.71627C133.083 9.34176 133.166 9.90632 133.335 10.3673C133.481 10.8486 133.711 11.2243 134.003 11.5167C134.275 11.8295 134.609 12.061 134.985 12.1849C135.361 12.3514 135.757 12.4144 136.198 12.4144Z" fill="#776C61"/>
</g>
<defs>
<clipPath id="clip0_251_502">
<rect width="146" height="24" fill="white"/>
</clipPath>
</defs>
</svg>
